:SAMPLES-PER-SECOND 30
:FULLY-SPECIFIED
:DEGREES
336
root  90.1415 38.7389 -23.4891 36.0477 -81.2015 -29.6798
RightUpLeg  -35.2345 -5.07372 -2.69029
RightLeg  45.4542 -5.05768 -5.84722
RightFoot  7.07692 0.451425 -2.45047
RightToes  0.000482159 0.542163 -0.142577
Spine  59.121 -4.5282 7.82845
Spine1  8.52264 -0.100914 0.497051
HEad  -40.266 -3.64709 -0.382484
LeftShoulder1  10.4453 -22.3182 -34.2926
LeftArm  -15.2607 -25.8282 -45.9767
LeftForeArm  33.9469 -70.8067 -30.2866
LeftHand  -0.25398 0.0180481 5.50724
RightShoulder  6.0275 13.6314 29.1775
RightArm  -26.3534 22.9466 19.5884
RightForeArm  -20.4911 64.6445 27.0084
RightHand  0.00525526 -10.0846 -2.42195
LeftUpLeg  -16.2093 21.6309 -9.53275
LeftLeg  22.083 9.51208 4.54891
LeftFoot  -17.7913 0.436111 5.8377
LeftToes  1.06247e-005 4.65854e-005 -8.18501e-006
337
root  89.3851 38.645 -22.8434 36.4758 -81.0896 -30.6177
RightUpLeg  -37.0064 -3.4651 -0.870848
RightLeg  44.9156 -3.93233 -4.49442
RightFoot  4.72444 -0.0101803 0.319585
RightToes  0.000482159 0.542163 -0.142577
Spine  55.9043 -4.47353 8.12699
Spine1  8.68715 -0.660066 1.66054
HEad  -38.4208 -2.99033 -1.4655
LeftShoulder1  10.2702 -21.5903 -34.7794
LeftArm  -14.5842 -23.3147 -46.2917
LeftForeArm  35.8789 -71.9456 -32.6449
LeftHand  -0.25398 0.0180481 5.50724
RightShoulder  5.7811 12.8533 29.353
RightArm  -24.1887 21.2324 20.7308
RightForeArm  -24.5481 67.1558 31.2333
RightHand  0.191613 -7.85343 -10.8356
LeftUpLeg  -14.0258 22.0036 -9.47315
LeftLeg  21.8981 9.51691 4.51386
LeftFoot  -19.0218 0.497532 5.70242
LeftToes  1.06247e-005 4.65854e-005 -8.18501e-006
338
root  88.5183 38.5522 -22.1768 36.583 -80.934 -31.7861
RightUpLeg  -36.9944 -4.60196 2.33557
RightLeg  40.8173 -5.62341 -5.45275
RightFoot  2.1613 -0.223889 1.96162
RightToes  0.000482159 0.542163 -0.142577
Spine  53.559 -4.25183 8.34153
Spine1  8.5037 -1.05688 3.21915
HEad  -36.8997 -2.19064 -2.7944
LeftShoulder1  10.4472 -21.1127 -36.2674
LeftArm  -13.8765 -21.1079 -45.4374
LeftForeArm  36.567 -72.5811 -34.2609
LeftHand  -0.25398 0.0180481 5.50724
RightShoulder  5.60298 12.2343 29.6222
RightArm  -22.5735 19.142 21.156
RightForeArm  -24.9654 69.6831 36.4316
RightHand  0.185062 -6.90549 -15.6882
LeftUpLeg  -10.7379 22.7328 -8.95377
LeftLeg  21.2876 9.00856 4.18301
LeftFoot  -20.1126 0.550913 5.6001
LeftToes  1.06247e-005 4.65854e-005 -8.18501e-006
339
root  87.5229 38.4419 -21.4827 33.2302 -80.7664 -29.7666
RightUpLeg  -35.7193 -8.55696 6.1594
RightLeg  34.0918 -6.35158 -4.8981
RightFoot  -0.227358 -0.14571 1.48904
RightToes  0.000482159 0.542163 -0.142577
Spine  51.5183 -4.23259 8.27134
Spine1  8.38837 -1.72662 4.61979
HEad  -35.5289 -1.31177 -3.72822
LeftShoulder1  10.3768 -20.7357 -36.6329
LeftArm  -13.345 -18.7119 -45.3152
LeftForeArm  37.6172 -73.1747 -35.841
LeftHand  -0.25398 0.0180481 5.50724
RightShoulder  5.54457 11.7972 30.2702
RightArm  -21.0504 16.9161 20.9828
RightForeArm  -19.7816 72.1867 43.1389
RightHand  0.3744 -8.38228 -15.9492
LeftUpLeg  -6.49179 23.7538 -8.51708
LeftLeg  20.0804 8.03205 3.57481
LeftFoot  -21.0279 0.587806 5.44183
LeftToes  1.06247e-005 4.65854e-005 -8.18501e-006
340
root  86.4122 38.2595 -20.7881 29.2098 -80.8179 -26.9593
RightUpLeg  -34.0435 -12.3051 9.82598
RightLeg  26.5888 -4.55904 -2.74308
RightFoot  -1.73049 -0.246665 2.80849
RightToes  0.000482159 0.542163 -0.142577
Spine  49.3707 -4.03657 7.53129
Spine1  8.14883 -2.37247 5.97118
HEad  -33.5282 -0.980493 -4.24569
LeftShoulder1  10.1515 -20.2618 -36.5512
LeftArm  -12.847 -16.2676 -45.2514
LeftForeArm  39.0313 -73.813 -37.6593
LeftHand  -0.25398 0.0180481 5.50724
RightShoulder  5.40501 11.2633 30.6414
RightArm  -19.1244 14.885 21.1543
RightForeArm  -11.2308 74.3481 51.4533
RightHand  0.510988 -9.42875 -15.7995
LeftUpLeg  -2.2301 25.3426 -7.98902
LeftLeg  19.1864 6.8267 2.75577
LeftFoot  -22.1016 0.607467 5.03788
LeftToes  1.06247e-005 4.65854e-005 -8.18501e-006
341
root  85.1658 38.0286 -20.0486 25.8221 -80.6878 -24.6018
RightUpLeg  -31.8767 -15.0772 12.9927
RightLeg  20.2298 -1.98639 -0.92598
RightFoot  -2.77726 -0.472367 6.07441
RightToes  0.000482159 0.542163 -0.142577
Spine  47.107 -3.93252 6.74725
Spine1  7.79452 -3.08994 7.45124
HEad  -31.2803 -0.815336 -4.56834
LeftShoulder1  10.0927 -19.6451 -37.42
LeftArm  -11.9848 -14.2565 -43.6255
LeftForeArm  39.0018 -74.0942 -38.721
LeftHand  -0.25398 0.0180481 5.50724
RightShoulder  5.13902 10.5646 30.5709
RightArm  -16.829 12.8833 21.8571
RightForeArm  -2.52472 75.9332 60.9739
RightHand  0.39632 -8.15249 -18.214
LeftUpLeg  1.9243 25.594 -7.15839
LeftLeg  18.7828 6.62602 1.8762
LeftFoot  -22.7865 0.577607 4.39314
LeftToes  1.06247e-005 4.65854e-005 -8.18501e-006
